<svg width="109" height="33" fill="none" xmlns="http://www.w3.org/2000/svg"><path d="M102.43 0H6.57A6.58 6.58 0 0 0 0 6.6v19.8C0 30.05 2.94 33 6.57 33h95.86a6.58 6.58 0 0 0 6.57-6.6V6.6c0-3.65-2.94-6.6-6.57-6.6Z" fill="#D6DEEA"/><path fill-rule="evenodd" clip-rule="evenodd" d="M34.88 24.67h.83c.03-.22.08-.41.16-.6a1.48 1.48 0 0 1 .81-.78c.19-.07.4-.1.62-.1a1.47 1.47 0 0 1 1.5 1.03c.06.2.1.43.1.67v.07c0 .25-.04.47-.11.68-.07.2-.18.39-.32.54-.14.16-.3.27-.5.36-.2.09-.42.13-.67.13-.23 0-.44-.04-.63-.12a1.48 1.48 0 0 1-.81-.8 1.9 1.9 0 0 1-.15-.61h-.83v1.47h-.6v-3.37h.6v1.43Zm1.43.3c0 .16.02.32.06.47.04.15.1.28.18.4.09.1.2.2.32.26.12.07.27.1.43.1a.9.9 0 0 0 .75-.37c.08-.11.14-.24.18-.4.05-.14.07-.3.07-.47v-.07c0-.16-.02-.32-.07-.47-.03-.14-.1-.28-.18-.4a.91.91 0 0 0-.75-.37.88.88 0 0 0-.75.38c-.08.11-.14.25-.18.4a1.8 1.8 0 0 0-.06.46v.07Zm4.95.2h-.44v1.44h-.6v-3.37h.6v1.43h.4l1.18-1.43h.72l-1.38 1.62 1.5 1.75h-.76l-1.22-1.44Zm5.9-1.93v3.37h-.6v-2.89h-1.2l-.03.96c-.02.32-.05.6-.09.84-.03.21-.1.42-.2.6a.9.9 0 0 1-.35.37c-.15.08-.33.12-.55.12h-.18l.02-.52h.13c.1 0 .2-.02.28-.08a.54.54 0 0 0 .18-.25c.05-.1.08-.26.1-.43.03-.18.04-.4.06-.65l.06-1.44h2.37Zm3.66 3.37a.6.6 0 0 1-.05-.16 2.58 2.58 0 0 1-.03-.2l-.2.16a1.46 1.46 0 0 1-1.3.18 1.15 1.15 0 0 1-.36-.21.91.91 0 0 1-.32-.7 1 1 0 0 1 .1-.48.96.96 0 0 1 .32-.35c.14-.1.3-.16.5-.21.2-.05.41-.07.65-.07h.6v-.27c0-.2-.07-.36-.2-.48-.12-.12-.3-.17-.55-.17-.1 0-.21.01-.3.04a.8.8 0 0 0-.24.11.55.55 0 0 0-.16.17.4.4 0 0 0-.05.2h-.6c0-.11.03-.23.1-.35.06-.12.16-.23.28-.32.12-.1.26-.17.44-.23a1.87 1.87 0 0 1 1.1-.02c.16.05.3.12.41.21.11.1.2.21.27.36.06.14.1.3.1.49v1.56c0 .12 0 .24.03.36.02.13.05.24.09.33v.05h-.63Zm-1-.44a1.03 1.03 0 0 0 .57-.16.95.95 0 0 0 .34-.34v-.7h-.5c-.35 0-.61.06-.8.16a.5.5 0 0 0-.28.46c0 .08.02.16.05.23.02.07.07.13.13.18.06.06.13.1.2.12.09.03.19.05.3.05Zm4.52-2.73c.23 0 .43.03.61.11a1.31 1.31 0 0 1 .74.8c.07.19.1.4.1.61v.07c0 .24-.03.45-.1.65s-.17.37-.31.52c-.14.15-.3.27-.5.34-.2.1-.43.13-.65.13-.23 0-.45-.04-.66-.13a1.43 1.43 0 0 1-.8-.86c-.08-.2-.11-.43-.11-.65v-.3c0-.39.04-.72.11-1 .08-.3.19-.54.33-.73.14-.2.3-.36.5-.48.2-.11.4-.2.64-.24a4.29 4.29 0 0 0 .6-.16.43.43 0 0 0 .16-.14.36.36 0 0 0 .05-.2h.5a1 1 0 0 1-.1.48.74.74 0 0 1-.27.28c-.11.07-.24.12-.37.15a23 23 0 0 1-.44.1c-.14.02-.28.06-.42.12a1.22 1.22 0 0 0-.61.56 1.6 1.6 0 0 0-.16.5c.14-.16.3-.3.5-.39.2-.1.41-.14.66-.14Zm-.12.47c-.16 0-.3.03-.43.09a.85.85 0 0 0-.3.22c-.08.1-.13.21-.17.34a1.4 1.4 0 0 0-.06.4v.07c0 .16.02.3.06.45.04.14.1.27.18.37a.87.87 0 0 0 .73.35c.16 0 .3-.03.43-.1a.86.86 0 0 0 .3-.25c.08-.1.14-.23.17-.37.04-.14.06-.3.06-.45v-.07c0-.14-.02-.27-.06-.4a.86.86 0 0 0-.48-.57 1.01 1.01 0 0 0-.43-.08Zm4.8.98a2 2 0 0 1 .1-.67c.08-.21.19-.4.32-.55.14-.15.31-.27.5-.36.2-.08.42-.13.67-.13.24 0 .47.05.67.13a1.48 1.48 0 0 1 .82.9c.07.21.1.44.1.68v.07c0 .25-.03.47-.1.68a1.46 1.46 0 0 1-.82.9c-.2.09-.42.13-.67.13-.24 0-.47-.04-.66-.13a1.46 1.46 0 0 1-.82-.9 2 2 0 0 1-.12-.68v-.07Zm.6.07c0 .17.02.33.06.48.04.15.1.28.19.4a.9.9 0 0 0 .74.36.9.9 0 0 0 .75-.37c.08-.11.14-.24.18-.4.05-.14.07-.3.07-.47v-.07c0-.16-.02-.32-.07-.47a1.2 1.2 0 0 0-.18-.4.91.91 0 0 0-.75-.37.88.88 0 0 0-.74.38c-.09.1-.15.24-.2.4a1.8 1.8 0 0 0-.05.46v.07Zm6.7-1.72v3.37h-.61v-2.89h-1.19l-.04.96a6.8 6.8 0 0 1-.09.84c-.03.21-.1.42-.2.6a.9.9 0 0 1-.35.37c-.14.08-.33.12-.55.12h-.18l.02-.52h.13c.1 0 .2-.02.28-.08a.54.54 0 0 0 .18-.25c.05-.1.08-.26.1-.43.03-.18.05-.4.06-.65l.06-1.44h2.37Zm3.76 0h.6v3.37h-.6v-2.46l-1.62 2.46h-.6v-3.37h.6v2.46l1.62-2.46Zm4.96 3.37h-.6v-1.44h-1.61v1.44h-.6v-3.37h.6v1.46h1.6v-1.46h.6v3.37Zm3.75-2.89h-1.61v2.89h-.6v-3.37h2.22v.48Zm-36.4-5.2-.16-.45-.36-1.04-.36-1.04-.16-.45H37.2l-1.05 2.98H34.8l3.84-10.43h1.28l3.84 10.43h-1.37Zm-3.13-8.84-.17.48a225.5 225.5 0 0 0-.91 2.6l-.42 1.19-.17.48h3.38L39.3 9.68h-.04Zm9.44.98a3 3 0 0 1 2.41 1.09c.62.73.92 1.69.92 2.88 0 1.18-.3 2.14-.91 2.87-.61.73-1.4 1.1-2.39 1.1-.55 0-1.04-.12-1.47-.36a2.57 2.57 0 0 1-1-.98h-.04v3.86h-1.25V10.73h1.19v1.26h.03c.22-.4.56-.72 1.02-.97.46-.24.97-.37 1.5-.36Zm-.23 6.81c.69 0 1.24-.26 1.66-.77.41-.52.62-1.21.62-2.07 0-.87-.2-1.56-.62-2.07a2.02 2.02 0 0 0-1.66-.78c-.67 0-1.21.26-1.63.79a3.2 3.2 0 0 0-.63 2.06c0 .84.21 1.53.63 2.05.42.53.96.8 1.63.8Zm8.8-6.81a3 3 0 0 1 2.4 1.09c.62.73.93 1.69.93 2.88 0 1.18-.3 2.14-.92 2.87-.6.73-1.4 1.1-2.38 1.1-.56 0-1.05-.12-1.47-.36a2.57 2.57 0 0 1-1.01-.98h-.03v3.86h-1.26V10.73h1.2v1.26h.02c.23-.4.57-.72 1.02-.97.46-.24.98-.37 1.5-.36Zm-.23 6.81c.68 0 1.24-.26 1.65-.77.42-.52.63-1.21.63-2.07 0-.87-.21-1.56-.63-2.07a2.02 2.02 0 0 0-1.65-.78c-.67 0-1.21.26-1.63.79a3.2 3.2 0 0 0-.63 2.06c0 .84.2 1.53.63 2.05.42.53.96.8 1.63.8Zm8.43-1.82c.07.92.45 1.66 1.15 2.21.7.56 1.6.83 2.71.83 1.2 0 2.14-.28 2.84-.83a2.74 2.74 0 0 0 1.05-2.27c0-.74-.23-1.34-.7-1.79a5.21 5.21 0 0 0-2.32-1.07l-1.1-.3c-.7-.18-1.2-.4-1.52-.65a1.2 1.2 0 0 1-.46-.97c0-.51.2-.92.63-1.24.43-.32.98-.48 1.65-.48.68 0 1.23.16 1.65.49.43.32.67.76.72 1.32h1.3a2.77 2.77 0 0 0-1.06-2.15 3.92 3.92 0 0 0-2.57-.83 4.1 4.1 0 0 0-2.64.82 2.6 2.6 0 0 0-1.03 2.13c0 1.36.92 2.28 2.77 2.75l1.33.35c.7.18 1.21.4 1.53.7.32.28.48.64.48 1.08 0 .51-.23.94-.69 1.27-.46.34-1.04.5-1.74.5-.74 0-1.35-.17-1.84-.51-.5-.34-.77-.8-.83-1.36h-1.3Zm9.7-6.67v1.75h-1.08v1.04h1.08v4.73c0 .74.15 1.28.45 1.6.3.32.8.48 1.5.48a6.02 6.02 0 0 0 .81-.07v-1.06a12.13 12.13 0 0 1-.54.04c-.33 0-.57-.09-.73-.26-.16-.16-.24-.43-.24-.78v-4.68h1.52v-1.04h-1.52V8.98h-1.25Zm7.54 9.61c-1.09 0-1.96-.36-2.6-1.08a4.15 4.15 0 0 1-.98-2.88c0-1.21.32-2.18.97-2.9a3.35 3.35 0 0 1 2.61-1.07c1.1 0 1.96.36 2.61 1.08.65.71.98 1.68.98 2.89 0 1.2-.33 2.16-.98 2.88a3.34 3.34 0 0 1-2.6 1.08Zm0-1.12c.73 0 1.3-.25 1.7-.75.4-.5.6-1.2.6-2.1 0-.9-.2-1.59-.6-2.09-.4-.5-.97-.75-1.7-.75-.72 0-1.29.25-1.7.75-.4.5-.6 1.2-.6 2.1 0 .89.2 1.58.6 2.09.42.5.98.75 1.7.75Zm5.08 1.05h1.26V13.7c0-.55.15-1 .46-1.33.3-.34.7-.5 1.21-.5a3.72 3.72 0 0 1 .69.07V10.7a3.06 3.06 0 0 0-.52-.04c-.45 0-.85.12-1.2.36-.33.23-.58.58-.68.98h-.03v-1.27h-1.19v7.79Zm7.96-6.76c-.6 0-1.11.2-1.51.61-.4.4-.63.94-.67 1.6h4.28a2.3 2.3 0 0 0-.6-1.6c-.38-.4-.88-.6-1.5-.6Zm2.07 4.53h1.24c-.1.67-.46 1.22-1.07 1.66-.6.43-1.32.64-2.16.64-1.09 0-1.95-.35-2.6-1.06a4.12 4.12 0 0 1-.96-2.88c0-1.2.32-2.17.96-2.9a3.22 3.22 0 0 1 2.55-1.1c1.03 0 1.86.35 2.46 1.03.6.69.91 1.62.91 2.8v.5h-5.58v.06c0 .75.2 1.34.63 1.78.42.44.97.67 1.66.67.49 0 .9-.11 1.26-.32.35-.22.59-.51.7-.88Z" fill="#295091"/><path d="M24.76 25.02c-.91 1.32-1.85 2.64-3.33 2.67-1.46.03-1.93-.86-3.6-.86-1.67 0-2.19.83-3.57.89-1.43.05-2.52-1.44-3.43-2.76-1.88-2.7-3.3-7.64-1.38-10.97a5.33 5.33 0 0 1 4.5-2.73c1.4-.03 2.74.95 3.6.95.85 0 2.47-1.17 4.16-1 .71.03 2.7.28 3.98 2.15-.1.07-2.37 1.4-2.35 4.15.03 3.3 2.9 4.4 2.92 4.4-.02.09-.45 1.57-1.5 3.1ZM18.53 7.59a4.89 4.89 0 0 1 3.2-1.65 4.8 4.8 0 0 1-1.13 3.48c-.76.92-2 1.63-3.23 1.54a4.56 4.56 0 0 1 1.16-3.37Z" fill="#295091"/></svg>