<svg width="31" height="35" fill="none" xmlns="http://www.w3.org/2000/svg"><path d="M26.25 19.94v-3.1H24v3.58a1.14 1.14 0 0 0 .34.83l3.04 3.22v1.91H2.61v-1.9l3.04-3.23c.11-.1.2-.23.26-.38.06-.14.08-.3.08-.45v-5.97c0-2.53.95-4.96 2.64-6.75A8.75 8.75 0 0 1 15 4.9a8.5 8.5 0 0 1 4.5 1.3V3.48c-1.07-.5-2.2-.83-3.38-.95V.13h-2.25v2.39a11.22 11.22 0 0 0-7.19 3.93 12.53 12.53 0 0 0-2.93 8v5.49L.71 23.16a1.09 1.09 0 0 0-.34.84v3.58a1.18 1.18 0 0 0 .31.86c.1.12.24.2.38.26a1 1 0 0 0 .44.07h7.87c0 1.58.6 3.1 1.65 4.22A5.47 5.47 0 0 0 15 34.73c1.5 0 2.92-.62 3.98-1.74a6.15 6.15 0 0 0 1.64-4.22h7.88a1 1 0 0 0 .82-.33 1.13 1.13 0 0 0 .3-.86V24a1.14 1.14 0 0 0-.33-.84l-3.04-3.22ZM15 32.34c-.9 0-1.75-.37-2.39-1.04a3.7 3.7 0 0 1-.98-2.53h6.74a3.7 3.7 0 0 1-.98 2.53A3.28 3.28 0 0 1 15 32.35Z" fill="url(#a)"/><path d="M26.25 13.26c2.49 0 4.5-2.14 4.5-4.78 0-2.63-2.01-4.77-4.5-4.77s-4.5 2.14-4.5 4.77c0 2.64 2.01 4.78 4.5 4.78Z" fill="url(#b)"/><defs><linearGradient id="a" x1=".37" y1=".13" x2="26.24" y2=".13" gradientUnits="userSpaceOnUse"><stop stop-color="#FE5C28"/><stop offset="1" stop-color="#FF8B36" stop-opacity=".9"/></linearGradient><linearGradient id="b" x1="21.75" y1="3.71" x2="29.71" y2="3.71" gradientUnits="userSpaceOnUse"><stop stop-color="#FE5C28"/><stop offset="1" stop-color="#FF8B36" stop-opacity=".9"/></linearGradient></defs></svg>