<svg width="111" height="33" fill="none" xmlns="http://www.w3.org/2000/svg"><path d="M107.62 0H3.38A3.38 3.38 0 0 0 0 3.37v26.26A3.38 3.38 0 0 0 3.38 33h104.24c1.86 0 3.38-1.5 3.38-3.37V3.37A3.38 3.38 0 0 0 107.62 0Z" fill="#295091" fill-opacity=".19"/><path fill-rule="evenodd" clip-rule="evenodd" d="M36.8 24.22h.93c.02-.24.08-.47.17-.69.1-.2.22-.39.37-.54a1.63 1.63 0 0 1 1.2-.49 1.61 1.61 0 0 1 1.3.57c.15.18.27.39.35.63.08.24.12.5.12.78v.08c0 .29-.04.55-.12.79-.08.24-.2.45-.35.63a1.61 1.61 0 0 1-1.29.56 1.63 1.63 0 0 1-1.6-1.06c-.08-.23-.14-.47-.15-.71h-.92v1.7h-.67v-3.9h.67v1.66Zm1.58.34c0 .2.03.38.07.55.05.18.12.33.2.46a.97.97 0 0 0 .82.43.97.97 0 0 0 .84-.43c.09-.13.15-.28.2-.46.05-.17.07-.35.07-.55v-.08c0-.18-.02-.37-.07-.54a1.43 1.43 0 0 0-.2-.46c-.1-.13-.21-.24-.35-.31a.97.97 0 0 0-.48-.12.94.94 0 0 0-.48.12c-.14.07-.25.18-.34.3-.1.15-.17.3-.2.47-.05.17-.08.35-.08.54v.08Zm5.47.25h-.48v1.66h-.66v-3.9h.66v1.65h.43l1.3-1.65h.8l-1.52 1.87 1.66 2.03h-.84l-1.35-1.66Zm6.51-2.24v3.9h-.66v-3.35h-1.31l-.05 1.12c-.02.37-.05.7-.1.97-.03.24-.1.48-.21.7-.09.17-.22.32-.4.42-.15.1-.36.14-.6.14h-.2l.02-.6h.14c.11 0 .23-.03.32-.1s.16-.17.2-.28c.05-.13.08-.3.1-.5.03-.21.05-.46.07-.75l.07-1.67h2.61Zm4.04 3.9a.72.72 0 0 1-.05-.18 3.14 3.14 0 0 1-.04-.23l-.2.18c-.26.2-.58.3-.9.3-.19 0-.37-.03-.54-.09-.16-.06-.3-.14-.41-.25a1.08 1.08 0 0 1-.36-.81 1.1 1.1 0 0 1 .47-.95c.15-.11.34-.2.55-.25.24-.06.48-.09.72-.08h.66v-.31a.75.75 0 0 0-.2-.56c-.15-.13-.35-.2-.62-.2-.11 0-.23.01-.34.05-.1.03-.19.08-.26.13a.63.63 0 0 0-.17.2.48.48 0 0 0-.06.23h-.67c0-.14.04-.27.11-.41.07-.14.18-.26.31-.37.13-.1.3-.2.49-.27.18-.07.4-.1.63-.1a2 2 0 0 1 .58.08c.18.06.33.14.46.25.12.1.22.24.3.4.07.17.1.36.1.58v1.8c0 .14.01.28.04.42.02.15.05.27.1.38v.06h-.7Zm-1.1-.51c.12 0 .24-.02.34-.05a1.25 1.25 0 0 0 .51-.32.9.9 0 0 0 .15-.21v-.8h-.55c-.38 0-.67.06-.88.18a.58.58 0 0 0-.3.53c0 .1.01.19.04.27.03.08.08.15.14.2.07.07.14.11.24.15.09.03.2.05.32.05Zm4.99-3.16a1.46 1.46 0 0 1 1.18.5c.13.16.24.34.31.56.08.21.11.45.11.7v.08c0 .27-.04.52-.11.76a1.58 1.58 0 0 1-.88 1c-.24.1-.49.14-.74.14s-.5-.05-.72-.14c-.21-.1-.4-.23-.55-.4a1.75 1.75 0 0 1-.34-.6c-.08-.25-.12-.5-.12-.76v-.35c0-.45.04-.83.13-1.16.07-.3.2-.59.36-.84a1.85 1.85 0 0 1 1.26-.83c.14-.02.26-.05.37-.08.11-.03.2-.06.28-.1.08-.04.14-.1.18-.17a.43.43 0 0 0 .06-.23h.55c0 .23-.04.42-.11.56a.84.84 0 0 1-.3.32c-.12.08-.26.13-.4.17l-.49.1c-.16.04-.31.1-.46.15a1.37 1.37 0 0 0-.68.65c-.08.16-.14.35-.18.58.16-.18.35-.33.56-.44.22-.12.47-.18.73-.17Zm-.13.54c-.18 0-.34.04-.48.1a.95.95 0 0 0-.33.27c-.09.11-.15.25-.19.39-.04.15-.06.3-.06.46v.08c0 .18.02.36.06.52.04.17.1.31.2.43.08.13.2.23.33.3.13.07.29.11.47.11s.34-.04.48-.11a.97.97 0 0 0 .33-.3c.09-.12.15-.26.2-.43.04-.17.06-.34.06-.52v-.08c0-.16-.02-.32-.06-.46-.04-.14-.11-.28-.2-.4a.96.96 0 0 0-.34-.26c-.15-.07-.3-.1-.47-.1Zm5.29 1.14c0-.28.04-.54.12-.78.08-.23.2-.44.35-.63a1.6 1.6 0 0 1 1.28-.57 1.63 1.63 0 0 1 1.3.57c.15.18.27.39.35.63.08.24.12.5.12.78v.08c0 .29-.04.55-.12.79-.08.24-.2.45-.35.63a1.61 1.61 0 0 1-1.29.56c-.27 0-.52-.05-.73-.15-.22-.1-.4-.24-.56-.41-.15-.19-.27-.4-.35-.63a2.42 2.42 0 0 1-.12-.79v-.08Zm.66.08c0 .2.03.38.07.55.05.18.11.33.2.46.1.13.21.23.35.31.14.08.3.12.48.12a.97.97 0 0 0 .82-.43c.1-.13.16-.28.2-.46.06-.17.08-.35.08-.55v-.08c0-.18-.02-.37-.07-.54a1.43 1.43 0 0 0-.2-.46c-.1-.13-.22-.24-.35-.31a.97.97 0 0 0-.49-.12.94.94 0 0 0-.47.12c-.14.07-.25.18-.34.3-.1.15-.17.3-.21.47-.05.17-.07.35-.07.54v.08Zm7.4-1.99v3.9h-.67v-3.35h-1.31l-.05 1.12c-.02.37-.05.7-.1.97-.03.24-.1.48-.21.7-.09.17-.22.32-.4.42-.16.1-.36.14-.6.14h-.2l.02-.6h.14c.11 0 .22-.03.32-.1.09-.07.16-.17.2-.28.05-.13.08-.3.1-.5.03-.21.05-.46.07-.75l.07-1.67h2.61Zm4.15 0h.66v3.9h-.66v-2.84l-1.79 2.84h-.66v-3.9h.66v2.85l1.79-2.85Zm5.47 3.9h-.66V24.8h-1.78v1.67h-.67v-3.9h.67v1.7h1.78v-1.7h.66v3.9Zm4.15-3.35H83.5v3.35h-.67v-3.9h2.45v.55Zm-3.93-9.76c0 .45-.05.9-.17 1.32-.1.37-.26.72-.49 1.03-.2.28-.48.5-.79.67a2.81 2.81 0 0 1-2.29 0 2.32 2.32 0 0 1-.85-.68v3.26h-.72V10.1h.68l.03.9a2.39 2.39 0 0 1 2.07-1.02 2.2 2.2 0 0 1 1.87.89c.22.28.38.62.5 1.02a5 5 0 0 1 .16 1.35v.12Zm-.73-.12c0-.35-.04-.7-.12-1.04-.07-.3-.2-.59-.36-.84a1.75 1.75 0 0 0-.61-.56 2.25 2.25 0 0 0-1.57-.1c-.38.1-.7.34-.93.65-.1.15-.2.3-.27.47v3.07c.08.16.18.31.3.45.11.14.25.26.4.36.16.1.34.18.54.24.2.05.42.08.67.08.33 0 .62-.07.86-.2.25-.14.45-.33.6-.57.17-.23.29-.52.37-.84.08-.32.12-.67.12-1.05v-.12Zm3.16 3.26h-.73V7.4h.73v9.1Zm6.15 0a5.47 5.47 0 0 1-.14-.9c-.25.3-.55.55-.9.72a3.02 3.02 0 0 1-2.22.16 1.97 1.97 0 0 1-.67-.38 1.73 1.73 0 0 1-.37-2.14c.14-.26.35-.48.6-.64.26-.18.57-.31.94-.4.41-.1.84-.15 1.26-.14h1.35v-.73c0-.46-.14-.82-.44-1.08-.29-.26-.71-.4-1.27-.4-.25 0-.49.04-.7.1-.22.07-.4.16-.56.28-.16.12-.28.26-.37.41a1 1 0 0 0-.13.5h-.73c0-.24.06-.47.18-.7.12-.22.3-.42.52-.6.22-.18.49-.32.8-.42a3.4 3.4 0 0 1 2-.03c.3.08.54.21.75.39.22.17.38.39.5.65s.18.56.18.91v3.1a4.98 4.98 0 0 0 .11 1c.03.1.05.2.09.27v.07h-.78Zm-2.3-.5a2.63 2.63 0 0 0 1.35-.38 2.15 2.15 0 0 0 .8-.89v-1.4h-1.25c-.37 0-.7.02-1 .09-.27.05-.52.15-.75.28-.2.12-.36.27-.47.45-.1.18-.16.38-.16.6a1.16 1.16 0 0 0 .4.88c.13.11.29.2.47.26.18.07.39.1.61.1Zm6.91-.52 1.93-5.38h.78l-2.79 7.42c-.05.15-.13.31-.21.5-.1.18-.2.35-.35.5a1.65 1.65 0 0 1-1.43.55 4.33 4.33 0 0 1-.42-.07v-.58c.12.02.25.03.38.03.2 0 .36-.02.51-.07.15-.05.29-.12.4-.22.11-.1.22-.23.3-.36.08-.15.16-.32.22-.5l.32-.85-2.49-6.35h.8l2.05 5.38Z" fill="#295091"/><path d="M8.12 26.18V8.16a1.58 1.58 0 0 1 .91-1.43l10.6 10.44-10.6 10.44a1.6 1.6 0 0 1-.9-1.43Zm14.9-5.65-11.51 6.4 9.07-8.75 2.43 2.35Zm3.46-4.3c.36.3.6.76.6 1.28s-.23.98-.59 1.27l-2.3 1.42-2.53-2.69 2.52-2.7 2.3 1.42ZM11.5 7.4 23 13.8l-2.43 2.35-9.07-8.75Zm39.25 6.4a3 3 0 0 1-3.04 3.03 3 3 0 0 1-3.05-3.03 2.99 2.99 0 0 1 3.05-3.03 2.99 2.99 0 0 1 3.04 3.03Zm-1.33 0c0-1.1-.8-1.84-1.71-1.84-.92 0-1.72.75-1.72 1.84 0 1.08.8 1.83 1.72 1.83.92 0 1.7-.76 1.7-1.83Zm8.1 0a3 3 0 0 1-3.05 3.03 3 3 0 0 1-3.04-3.03 2.99 2.99 0 0 1 3.04-3.03 2.99 2.99 0 0 1 3.05 3.03Zm-1.33 0c0-1.1-.8-1.84-1.72-1.84-.92 0-1.7.75-1.7 1.84 0 1.08.78 1.83 1.7 1.83.93 0 1.72-.76 1.72-1.83Zm8.1-2.85v5.43c0 2.23-1.39 3.14-3.02 3.14a3.02 3.02 0 0 1-2.82-1.78l1.22-.48c.21.49.74 1.07 1.6 1.07 1.04 0 1.7-.61 1.7-1.77v-.44h-.06c-.3.37-.9.7-1.67.7a3.07 3.07 0 0 1-3.04-3.02c0-1.7 1.45-3.03 3.04-3.03.76 0 1.36.32 1.67.67h.05v-.49h1.33Zm-1.23 2.85c0-1.06-.74-1.84-1.7-1.84s-1.76.78-1.76 1.84c0 1.05.8 1.82 1.77 1.82.95 0 1.7-.77 1.7-1.82Zm3.26-5.73v8.08h-1.35V8.08h1.35Zm5.03 6.72 1 .7a2.9 2.9 0 0 1-5.35-1.7c0-1.8 1.25-3.02 2.76-3.02 1.53 0 2.27 1.25 2.52 1.92l.13.35-3.92 1.68c.3.6.76.91 1.42.91.66 0 1.11-.33 1.44-.84Zm-3.08-1.09 2.63-1.12c-.15-.38-.58-.64-1.1-.64-.65 0-1.56.6-1.53 1.76Zm-28.5-1.1v-1.2h4.15c.04.21.06.46.06.73 0 .9-.25 2-1.06 2.8a4.2 4.2 0 0 1-3.15 1.22 4.51 4.51 0 0 1-4.58-4.37c0-2.42 2.09-4.38 4.58-4.38 1.37 0 2.35.52 3.09 1.2l-.87.85a3.2 3.2 0 0 0-2.23-.86 3.19 3.19 0 0 0-3.23 3.19 3.19 3.19 0 0 0 3.23 3.18c1.18 0 1.86-.46 2.28-.88.35-.34.58-.82.67-1.48h-2.95Z" fill="#295091"/></svg>