<svg width="32" height="32" fill="none" xmlns="http://www.w3.org/2000/svg"><path fill-rule="evenodd" clip-rule="evenodd" d="M16 0a16 16 0 1 0 0 32 16 16 0 0 0 0-32Zm.02 4.87a5.64 5.64 0 1 1-.07 11.27 5.64 5.64 0 0 1 .07-11.27Zm6.32 13.48a6.77 6.77 0 0 1-2.45 1.58c-.87.34-1.82.5-2.76.62.14.15.2.23.3.32l3.84 3.86c.44.44.53.99.29 1.5-.26.56-.85.93-1.43.89a1.4 1.4 0 0 1-.9-.46c-.96-.97-1.95-1.93-2.9-2.92-.27-.3-.4-.24-.65.01-.98 1-1.96 2-2.96 2.97-.45.44-.98.52-1.5.27-.54-.26-.9-.83-.87-1.4.02-.37.2-.67.47-.93l3.8-3.8.28-.31a8.65 8.65 0 0 1-4.61-1.65c-.17-.13-.34-.25-.49-.4-.58-.56-.64-1.2-.18-1.86.4-.57 1.06-.72 1.75-.4l.38.23a7.56 7.56 0 0 0 8.39.08c.24-.2.52-.34.81-.42.6-.15 1.16.06 1.47.59.37.59.36 1.17-.08 1.63Z" fill="#295091"/></svg>